<svg xmlns="http://www.w3.org/2000/svg" width="100mm" height="100.00001mm" viewBox="0 0 283.46456 283.46459"><title>ЛогоАП</title><path d="M283.37653,36.69946a35.28286,35.28286,0,0,0-9.63269-23.97675c-7.85938-8.68579-17.7453-12.73443-29.463-12.72Q175.14825.08808,106.01563.024C83.683.02368,61.35028.064,39.01782.00018A37.35533,37.35533,0,0,0,18.697,5.37781C6.57751,12.92627.25043,23.95306.09241,38.23565c-.17932,16.20618-.04236,32.4159-.04248,48.624Q.04938,165.62836.03729,244.39691C.03375,252.4956,1.954,260.03167,6.61151,266.67975c7.802,11.13659,18.58515,16.76843,32.21289,16.77533q51.47993.026,102.96.00512,49.92-.00091,99.84-.00329c1.97021-.00019,3.94391.03033,5.91-.07032a36.32985,36.32985,0,0,0,21.53687-8.22607,37.21819,37.21819,0,0,0,14.36963-30.16492q.034-59.30218.00915-118.60431C283.44714,96.494,283.51617,66.59619,283.37653,36.69946Zm-15.772,234.39075a32.852,32.852,0,0,1-22.238,8.31012q-32.01674.044-64.03363.01446-71.42213-.00009-142.84424-.0379C24.986,279.351,14.86749,273.132,8.19458,261.42926a29.55979,29.55979,0,0,1-3.96765-14.73609q-.06482-41.71884-.05151-83.4378-.0045-10.75845-.00031-21.51685.00027-51.41034-.02563-102.82068A33.79867,33.79867,0,0,1,13.11914,15.122C19.606,8.04846,27.74182,4.13489,37.34192,4.12311q104.424-.12817,208.84814-.04529c15.61914.00348,30.06641,12.38452,32.64728,27.821a52.25978,52.25978,0,0,1,.597,8.66254q-.00916,101.58892.02288,203.17773C279.46619,254.65234,275.84729,263.8714,267.60455,271.09021Z" transform="translate(-0.00001 0.00003)" fill="#00e6ff"/><path d="M17.01453,257.12378a3.06223,3.06223,0,0,1-.17291-1.60889q-.00549-113.751.00135-227.502c.00037-6.72053,3.66358-11.4505,9.8695-12.61383a23.26928,23.26928,0,0,1,4.25254-.17853q104.51318-.01126,209.02634-.00688c5.85645,0,11.71293-.01037,17.56936.00256,7.16231.0158,12.1769,4.97309,12.2883,12.15221.03568,2.29914.01082,4.59924.0109,6.89889q.00412,110.54789.00808,221.09578c.0003,6.76618-3.55216,11.42162-9.74642,12.70143a12.16265,12.16265,0,0,1-2.44536.17274q-114.28305.01041-228.5661.001c-6.42248-.00064-11.60984-4.46585-12.118-10.35967a3.12021,3.12021,0,0,1,.03193-.485,3.768,3.768,0,0,0,.19313-2.08148q.016-113.06692.01639-226.13386a7.5235,7.5235,0,0,1-.01827-1.52126c.0144.248.00164.82822.00164,1.40974q.00086,112.98481-.00939,225.96962A3.80592,3.80592,0,0,1,17.01453,257.12378Z" transform="translate(-0.00001 0.00003)" fill="#00e6ff"/><path d="M17.01453,257.12378c.02821-.70958.08111-1.41914.08114-2.12873q.00516-113.08971.00265-226.17942V26.76275l.282.00118v1.61084q.00126,113.58248-.0084,227.16495c-.00009.62412.25259,1.32909-.34786,1.85394A.21767.21767,0,0,1,17.01453,257.12378Z" transform="translate(-0.00001 0.00003)" fill="#504220"/><path d="M213.72336,112.66745c.1245-2.0674.24315-3.75274.32435-5.43989.23173-4.8149.15987-9.62928.031-14.4468-.08374-3.129.15483-6.23792,1.75484-9.05563a3.478,3.478,0,0,1,.953-1.31428c1.81778-1.09085,2.17334-3.00469,2.88522-4.74286,1.54739-3.77807,3.46787-7.31975,6.73744-9.92905,2.70164-2.15606,4.95782-1.68375,6.45237,1.45856,1.68017,3.53266,2.38715,7.37941,3.17552,11.16645a265.24887,265.24887,0,0,1,5.2423,58.8878,93.43679,93.43679,0,0,1-1.16348,13.72563,21.04485,21.04485,0,0,1-8.96883,14.349,195.18709,195.18709,0,0,0-17.83877,14.43474c-5.908,5.21418-11.54657,10.71792-17.25763,16.14615-6.2028,5.89553-8.75312,13.12492-9.16732,21.41438-.396,7.925-.9285,15.84319-1.35152,23.767-.0509.95309-.38625,1.15382-1.27006,1.15208q-15.51793-.03067-31.03593.02529c-1.03433.00423-1.27194-.33341-1.25959-1.31568.17211-13.6868.06988-27.38191.52061-41.059.40749-12.365,3.37618-24.128,10.24624-34.65129a45.7339,45.7339,0,0,1,14.96248-14.02523,69.4698,69.4698,0,0,0,15.35856-12.9664c6.95036-7.64987,13.63168-15.55314,21.06922-22.75129q2.23986-2.16778,4.59876-4.21084a10.37633,10.37633,0,0,1,2.19318-1.42c2.28487-1.12669,4.58283-1.19073,6.61529.49279,2.0607,1.70691,2.26667,4.005,1.57477,6.43563a14.19594,14.19594,0,0,1-2.87953,4.92024c-8.981,11.16781-17.84984,22.4212-26.237,34.04838a97.25351,97.25351,0,0,0-5.67674,9.39913c-.58658,1.04295-.66959,2.06334.36374,2.76123,1.14177.77115,2.11451.15375,2.782-.83638,1.19127-1.76725,2.35188-3.55881,3.44335-5.38915,5.05721-8.48087,11.1996-16.17914,17.24211-23.94679,4.09616-5.26562,8.33723-10.419,12.40132-15.70881a11.21933,11.21933,0,0,0,2.46923-8.92451c-1.1739-6.76048-8.47745-9.84527-14.48152-6.20676C216.896,109.90292,215.55784,111.27,213.72336,112.66745Z" transform="translate(-0.00001 0.00003)" fill="#fefefe"/><path d="M72.8851,112.52887c-1.13823-.93257-2.31423-1.98085-3.57524-2.91417-4.77458-3.53386-11.10521-2.7303-14.08481,1.75116a10.67456,10.67456,0,0,0,.69653,12.1667c3.15195,4.25983,6.56565,8.32513,9.8366,12.49772,5.93638,7.57276,11.92744,15.1078,17.28827,23.10849,1.88512,2.81341,3.564,5.7648,5.35188,8.644a9.70674,9.70674,0,0,0,1.15259,1.58843c.72775.76573,1.6048,1.21314,2.60924.48711.99049-.71592.88674-1.6154.375-2.60886a96.5883,96.5883,0,0,0-8.4495-13.263c-7.88618-10.62907-16.0875-21.01175-24.333-31.361a9.50352,9.50352,0,0,1-2.3609-5.64582c-.15055-4.30779,3.548-6.97527,7.63732-5.50736a14.75711,14.75711,0,0,1,4.807,3.35349c7.46,6.78976,13.93766,14.51007,20.75567,21.90927,4.07192,4.419,7.8802,9.11874,12.83087,12.64394,1.73486,1.23534,3.48169,2.46737,5.30833,3.558,11.35412,6.779,18.50172,16.71294,22.28741,29.27717a89.43865,89.43865,0,0,1,3.41381,26.07553c-.0021,11.43992.24947,22.88019.4475,34.31935.02115,1.2213-.15585,1.67691-1.54185,1.6667q-15.10394-.11138-30.20878-.0147c-1.47211.01053-1.8314-.46936-1.9049-1.8095-.41947-7.64828-1.041-15.28752-1.34022-22.93977-.3306-8.454-3.00126-15.71709-9.22408-21.71269-10.16909-9.79772-20.42422-19.48792-31.64829-28.07878-2.8641-2.19218-5.90351-4.0999-8.16593-7.01462-3.49644-4.5045-4.47334-9.77232-4.86636-15.22493a243.45236,243.45236,0,0,1,.917-41.47006,194.62269,194.62269,0,0,1,5.97678-34.02284,10.36862,10.36862,0,0,1,1.98612-4.27376,3.11226,3.11226,0,0,1,4.24956-.79854c2.86255,1.54924,4.58585,4.15648,6.16828,6.85931a31.81174,31.81174,0,0,1,1.65055,3.38661,16.53449,16.53449,0,0,0,3.28386,5.62723c2.57541,2.57626,2.61427,6.31137,2.51648,9.74944-.16044,5.64024-.23765,11.26828.14738,16.9C72.94491,110.45824,72.8851,111.48725,72.8851,112.52887Z" transform="translate(-0.00001 0.00003)" fill="#fefefe"/><path d="M136.05919,110.23306a81.97956,81.97956,0,0,0-5.67241,16.886c-.07127.32012-.13576.64173-.2063.962-.70361,3.19445-.70377,3.19465-4.06223,3.20243-2.46266.00569-4.92545.0255-7.3879.00581-.63362-.00507-1.40343.06579-1.53455-.85008-.11351-.79295.51329-.999,1.08446-1.21178a31.89124,31.89124,0,0,1,3.08175-1.10954,3.25965,3.25965,0,0,0,2.68079-3.05434c1.37605-9.91073,3.76495-19.6527,5.10864-29.563,1.16687-8.6062-.24036-16.79269-5.27856-24.09939-1.4903-2.16133-2.21906-2.20637-3.75426-.018a67.266,67.266,0,0,1-14.65351,15.37126c-.70328.52807-.60644.99681-.3594,1.64707.14565.38334.73244.92463-.11191,1.16729-.50838.1461-1.19753.66975-1.57908-.12342-.4521-.93985-.89822-.4121-1.38524-.11559-2.24738,1.36827-2.20051,1.36-1.76281,3.93045q3.10986,18.26309,6.18057,36.53286c.11325.66794.37471,1.27738-.69314,1.41338-.94149.11986-1.2-.22481-1.34809-1.11374-2.05638-12.34238-4.16236-24.67649-6.23079-37.01688-.2302-1.37343-.46161-2.67251-1.69129-3.58168-.91666-.67773-.78019-1.47378.00488-2.20411a10.61076,10.61076,0,0,1,.98583-.86113A51.46284,51.46284,0,0,0,116.84154,59.672c.14944-.46868.317-.93175.48246-1.39515.90853-2.54374.85588-2.629-1.73629-2.78352a8.13034,8.13034,0,1,1,7.46367-11.95316,7.08739,7.08739,0,0,1,.88938,4.58525,1.33639,1.33639,0,0,0,.80233,1.68036c10.9123,5.62368,17.66005,14.54291,20.58391,26.38456.34593,1.401.82821,1.19768,1.72981.75937a8.911,8.911,0,0,0,4.5016-9.25016,30.92587,30.92587,0,0,0-2.59916-7.05711c-.50774-1.10988-1.48343-1.15443-2.43043-1.36529a8.06792,8.06792,0,0,1-4.77867-12.56464,8.15622,8.15622,0,0,1,9.78244-2.7812,7.94812,7.94812,0,0,1,4.702,9.123c-.3693,1.654.16761,2.54886,1.26908,3.67762,8.70172,8.91728,15.5725,18.9678,19.17053,31.07538a77.3821,77.3821,0,0,1,3.61741,24.53966c-.04178,1.37024-.36624,1.86124-1.849,1.81331-3.54825-.11468-3.50088-.03024-3.23283,3.46117.30572,3.98215.49551,7.97306.76663,11.95806.09245,1.35922-.35876,2.04814-1.83725,2.00576-2.67979-.07682-5.36245-.05-8.04384-.07573-.64321-.00617-1.4746.12356-1.67647-.65443-.21647-.8342.552-1.27211,1.1808-1.569,1.2823-.60544,2.59409-1.159,3.92649-1.64392a1.2583,1.2583,0,0,0,.969-1.698c-.642-3.43819-1.1838-6.89564-1.72335-10.35208-.15776-1.01074-.52939-1.47363-1.67394-1.4663-3.46847.02221-3.47049-.03257-4.27015,3.35739-.95342,4.04171-1.94492,8.07514-2.83046,12.1317a1.82705,1.82705,0,0,1-2.10957,1.722c-2.29651-.04751-4.59588.0604-6.89366.044-.61149-.00437-1.45682.09516-1.61935-.74962-.14234-.73991.4627-1.22936,1.05717-1.51121,1.37917-.65387,2.78359-1.2615,4.207-1.81242a1.82694,1.82694,0,0,0,1.38988-1.75115c.27625-3.43458.6-6.86884,1.05375-10.28354.143-1.076-.18525-1.2753-1.06539-1.15-1.30025.18518-1.358-.33844-1.09931-1.47119,1.18033-5.16905,2.09817-10.39183,2.82472-15.64377.70964-5.12957-.18733-10.14907-1.29345-15.12447-.43122-1.93965-1.54229-2.20711-3.02734-.90587a21.71358,21.71358,0,0,1-5.65038,3.2656c-.4642.2075-.90833.33267-.86217.995.38879,5.57994-1.00305,10.96609-1.77587,16.42289a57.28874,57.28874,0,0,0,.2203,15.37812c.55551,4.33868.91507,8.70224,1.38835,13.05185.10155.93335-.05459,1.375-1.173,1.35552-3.5011-.06087-7.00433.01062-10.50673.00724-.69132-.00066-1.52833.091-1.70635-.86462-.1661-.89145.58154-1.22421,1.189-1.572,1.2618-.72231,3.24861-.80581,3.69693-2.12324.39522-1.16138-.39761-2.731-.67753-4.118A120.76957,120.76957,0,0,1,136.05919,110.23306Z" transform="translate(-0.00001 0.00003)" fill="#fefefe"/></svg>