<svg xmlns="http://www.w3.org/2000/svg" width="100mm" height="100mm" viewBox="0 0 283.46457 283.46457"><title>Знаем сиделок</title><path d="M141.7383,283.46457A141.71609,141.71609,0,0,1,0,141.7151C-.03449,63.39171,63.852-.26871,142.36964.00085,220.18036.268,283.61932,63.84669,283.46428,141.859A141.65326,141.65326,0,0,1,141.7383,283.46457Z" transform="translate(0 0)" fill="#00e6ff"/><path d="M222.9629,90.3543c-.24527.36964-.49766.75911-.759,1.14253q-32.766,48.08109-65.533,96.16149-9.84549,14.4474-19.66539,28.91215c-.626.92588-.99961.93888-1.8597.2673q-36.83145-28.75823-73.72329-57.439c-.94343-.73327-.90408-1.1777-.26783-2.07152Q71.619,142.627,81.99065,127.8611c.64771-.92252,1.02021-1.12019,2.01082-.36625,14.06349,10.70355,28.1743,21.345,42.2309,32.05752,1.05932.8073,1.41055.58092,2.06543-.386q31.17572-46.03282,62.37933-92.04675c.70943-1.04789,1.11785-1.168,2.14976-.36643,9.72253,7.55234,19.49167,15.0447,29.23939,22.56468C222.41284,89.58518,222.90271,89.76423,222.9629,90.3543Z" transform="translate(0 0)" fill="#fefefe"/></svg>