<?xml version="1.0" encoding="utf-8"?>
<!-- Generator: Adobe Illustrator 23.1.0, SVG Export Plug-In . SVG Version: 6.00 Build 0)  -->
<svg version="1.1" id="Слой_1" xmlns="http://www.w3.org/2000/svg" xmlns:xlink="http://www.w3.org/1999/xlink" x="0px" y="0px"
	 width="283.5px" height="245.2px" viewBox="0 0 283.5 245.2" style="enable-background:new 0 0 283.5 245.2;" xml:space="preserve"
	>
<style type="text/css">
	.st0{fill:#00E6FF;}
</style>
<title>сердце</title>
<path class="st0" d="M141.8,42c1.5-3.1,3.2-6.1,5.1-9c6.8-10.2,16-18.5,26.8-24.2c8.2-4.4,17.1-7.2,26.3-8.3
	c24.1-2.8,48.1,5.9,64.8,23.5c9.1,9.7,15.2,21.9,17.5,35.1c1,5.6,1.4,11.3,1.1,17c-0.5,10-2.6,19.8-6.2,29.1
	c-5.7,15.3-14.3,29-24.1,41.8c-8,10.2-16.7,19.8-26.1,28.7c-11,10.5-22.6,20.4-34.4,30c-16.5,13.4-33.4,26.3-50.3,39.2
	c-0.7,0.5-1,0.2-1.4-0.1c-7.2-5.5-14.5-11.1-21.7-16.6c-11.7-9-23.4-18.2-34.8-27.6c-8.2-6.8-16.3-13.8-24.1-21.1
	c-7.8-7.2-15.2-14.8-22.2-22.8c-10.8-12.3-20-25.9-27.3-40.5c-4.7-9.3-7.9-19.3-9.6-29.5c-2.2-14.1-1.5-28,4-41.4
	c3-7.4,7.3-14.3,12.7-20.2C28.1,13.6,41.6,5.7,56.5,2.2c7-1.8,14.3-2.5,21.5-2c15.9,0.8,31,5.8,43.5,16.5
	C133.5,26.9,141.3,41.7,141.8,42z"/>
</svg>
