<svg xmlns="http://www.w3.org/2000/svg" width="100mm" height="99.99973mm" viewBox="0 0 283.46457 283.4638"><title>Скидка</title><path d="M141.71071,0a141.73192,141.73192,0,1,1-.11593,283.46377C63.35216,283.4152-.07616,219.82792.00007,141.51429.07609,63.42082,63.577.00787,141.71071,0Z" fill="#00e6ff"/><path d="M151.79864,183.68033c.1186-12.968,2.83043-24.42062,12.26474-33.071,11.30138-10.36237,24.77758-11.74715,38.74521-7.26881,13.02459,4.176,19.10027,14.55722,21.21577,27.47728,1.51067,9.22631,1.3,18.42843-1.75428,27.38867-5.69783,16.71581-20.46205,26.01614-38.79815,24.4969-16.38195-1.35733-28.06552-12.80293-30.971-30.16043C151.96946,189.36776,152.05933,186.18894,151.79864,183.68033Z" fill="#fefefe"/><path d="M131.51336,101.90432c-.09868,11.44051-3.25708,23.15361-13.4257,31.755-10.92992,9.24533-23.69243,10.67256-36.87053,6.35172-12.69043-4.16094-19.28747-14.00211-21.82059-26.75322A54.84217,54.84217,0,0,1,60.33026,87.393c5.57759-19.70041,21.4095-28.66384,40.91914-26.38675C118.573,63.0282,128.84186,74.096,130.91858,91.62745A88.15935,88.15935,0,0,1,131.51336,101.90432Z" fill="#fefefe"/><path d="M82.54387,221.46529c1.27071-2.07087,2.17692-3.59438,3.12731-5.08982q47.85477-75.29768,95.668-150.62173a4.72729,4.72729,0,0,1,4.80931-2.60549c4.12536.19892,8.26716.05614,12.40528.05614.2248,1.25938-.63625,1.89233-1.12012,2.65342q-48.46212,76.22661-96.90449,152.46568c-1.47436,2.3242-2.96269,3.4302-5.81116,3.21325C90.92044,221.24753,87.08429,221.46529,82.54387,221.46529Z" fill="#fefefe"/><path d="M210.12646,180.90709c.06848,7.59721-.95286,14.26721-4.72808,20.20208a20.33645,20.33645,0,0,1-33.87518.41935c-6.76884-9.9736-6.63626-29.22382.29884-39.09465,4.90569-6.98232,11.86918-9.418,20.02854-8.43245,8.33157,1.00634,13.51732,6.11655,16.26791,13.82573A35.246,35.246,0,0,1,210.12646,180.90709Z" fill="#00e6ff"/><path d="M73.26056,102.2121c.02383-8.1224,1.18471-15.40226,6.02482-21.548,5.35627-6.80111,12.59348-8.76923,20.78422-7.172,7.8679,1.53424,12.46057,6.93714,14.82136,14.25911a44.12907,44.12907,0,0,1,.45821,25.12518c-2.97891,11.34663-10.66284,17.18749-21.60082,16.7669-9.93308-.38194-17.46728-7.481-19.65652-18.492A47.77365,47.77365,0,0,1,73.26056,102.2121Z" fill="#00e6ff"/></svg>