<?xml version="1.0" encoding="utf-8"?>
<!-- Generator: Adobe Illustrator 24.1.2, SVG Export Plug-In . SVG Version: 6.00 Build 0)  -->
<svg version="1.1" id="Capa_1" xmlns="http://www.w3.org/2000/svg" xmlns:xlink="http://www.w3.org/1999/xlink" x="0px" y="0px"
	 viewBox="0 0 106 106" style="enable-background:new 0 0 106 106;" xml:space="preserve">
<style type="text/css">
	.st5{fill:#20471f;}
</style>

<g class="st5">
	<path id="path26" d="M20.9,100.9c0,0-2.6,5.8,4.9,4.6c0,0,6.5-5.1,12.1,0c0,0,7.2,2.3,5.8-4.6C43.6,100.9,33.4,81.2,20.9,100.9"/>
	<path id="path28" d="M21.8,85.1c-2.1-6-3.9,0-3.9,0c-4.9,10,2.1,10,2.1,10C25.1,93.9,21.8,85.1,21.8,85.1"/>
	<path id="path30" d="M26.2,78.6c-4.9,10,2.1,10,2.1,10c5.1-1.2,1.9-10,1.9-10C28.1,72.6,26.2,78.6,26.2,78.6"/>
	<path id="path32" d="M35.5,77.7c-4.9,10,2.1,10,2.1,10c5.1-1.2,1.9-10,1.9-10C37.3,71.6,35.5,77.7,35.5,77.7"/>
	<path id="path34" d="M42.9,85.1c-4.9,10,2.1,10,2.1,10c5.1-1.2,1.9-10,1.9-10C44.8,79.1,42.9,85.1,42.9,85.1"/>
	<path id="path36" d="M61.7,76.7c0,0-2.5,5.8,4.9,4.6c0,0,6.5-5.1,12.1,0c0,0,7.2,2.3,5.8-4.6C84.4,76.7,74.2,57,61.7,76.7"/>
	<path id="path38" d="M62.6,61c-2.1-6-3.9,0-3.9,0c-4.9,10,2.1,10,2.1,10C65.9,69.8,62.6,61,62.6,61"/>
	<path id="path40" d="M67,54.5c-4.9,10,2.1,10,2.1,10c5.1-1.2,1.9-10,1.9-10C68.9,48.5,67,54.5,67,54.5"/>
	<path id="path42" d="M76.3,53.6c-4.9,10,2.1,10,2.1,10c5.1-1.2,1.9-10,1.9-10C78.1,47.5,76.3,53.6,76.3,53.6"/>
	<path id="path44" d="M83.7,61c-4.9,10,2.1,10,2.1,10c5.1-1.2,1.9-10,1.9-10C85.6,55,83.7,61,83.7,61"/>
	<path id="path46" d="M21.8,50.8c0,0-2.6,5.8,4.9,4.6c0,0,6.5-5.1,12.1,0c0,0,7.2,2.3,5.8-4.6C44.5,50.8,34.3,31.1,21.8,50.8"/>
	<path id="path48" d="M20.9,45c5.1-1.2,1.9-10,1.9-10c-2.1-6-3.9,0-3.9,0C13.9,45,20.9,45,20.9,45"/>
	<path id="path50" d="M29.2,38.5c5.1-1.2,1.9-10,1.9-10c-2.1-6-3.9,0-3.9,0C22.3,38.5,29.2,38.5,29.2,38.5"/>
	<path id="path52" d="M38.5,37.6c5.1-1.2,1.9-10,1.9-10c-2.1-6-3.9,0-3.9,0C31.5,37.6,38.5,37.6,38.5,37.6"/>
	<path id="path54" d="M43.8,35c-4.9,10,2.1,10,2.1,10c5.1-1.2,1.9-10,1.9-10C45.7,29,43.8,35,43.8,35"/>
	<path id="path56" d="M61.7,26.7c0,0-2.5,5.8,4.9,4.6c0,0,6.5-5.1,12.1,0c0,0,7.2,2.3,5.8-4.6C84.4,26.7,74.2,7,61.7,26.7"/>
	<path id="path58" d="M60.8,20.9c5.1-1.2,1.9-10,1.9-10c-2.1-6-3.9,0-3.9,0C53.8,20.9,60.8,20.9,60.8,20.9"/>
	<path id="path60" d="M69.1,14.4c5.1-1.2,1.9-10,1.9-10c-2.1-6-3.9,0-3.9,0C62.1,14.4,69.1,14.4,69.1,14.4"/>
	<path id="path62" d="M78.4,13.5c5.1-1.2,1.9-10,1.9-10c-2.1-6-3.9,0-3.9,0C71.4,13.5,78.4,13.5,78.4,13.5"/>
	<path id="path64" d="M85.8,20.9c5.1-1.2,1.9-10,1.9-10c-2.1-6-3.9,0-3.9,0C78.8,20.9,85.8,20.9,85.8,20.9"/>
</g>


</svg>
