<?xml version="1.0" encoding="utf-8"?>
<!-- Generator: Adobe Illustrator 24.1.2, SVG Export Plug-In . SVG Version: 6.00 Build 0)  -->
<svg version="1.1" id="Capa_1" xmlns="http://www.w3.org/2000/svg" xmlns:xlink="http://www.w3.org/1999/xlink" x="0px" y="0px"
	 viewBox="0 0 106 106" style="enable-background:new 0 0 106 106;" xml:space="preserve">


	<path d="M85.8,46.8H20.6c0-11,8.9-20,20-20h5.6V2h14v24.8h5.6C76.8,26.9,85.8,35.8,85.8,46.8z M56.5,54.8L56.5,54.8
		c0-1.9-1.5-3.3-3.3-3.3c-1.8,0-3.3,1.5-3.3,3.3c0,1.8,1.5,3.3,3.3,3.3C55,58.1,56.5,56.6,56.5,54.8z M56.5,82.5L56.5,82.5
		c0-1.9-1.5-3.4-3.3-3.4c-1.8,0-3.3,1.5-3.3,3.4c0,1.8,1.5,3.3,3.3,3.3C55,85.8,56.5,84.3,56.5,82.5z M56.5,68.6L56.5,68.6
		c0-1.9-1.5-3.4-3.3-3.4c-1.8,0-3.3,1.5-3.3,3.4c0,1.8,1.5,3.3,3.3,3.3C55,72,56.5,70.5,56.5,68.6z M56.5,96.2L56.5,96.2
		c0-1.9-1.5-3.4-3.3-3.4c-1.8,0-3.3,1.5-3.3,3.4c0,1.8,1.5,3.3,3.3,3.3C55,99.6,56.5,98.1,56.5,96.2z M92.3,95.6
		c1.7-0.7,2.5-2.6,1.9-4.3l0-0.1c-0.7-1.7-2.6-2.5-4.3-1.8c-1.7,0.7-2.5,2.6-1.8,4.3c0.5,1.3,1.8,2.1,3.1,2.1
		C91.5,95.8,91.9,95.8,92.3,95.6z M87.7,83c1.7-0.7,2.5-2.6,1.9-4.3l0-0.1c-0.7-1.7-2.6-2.5-4.3-1.8c-1.7,0.7-2.5,2.6-1.8,4.4
		c0.5,1.3,1.8,2.1,3.1,2.1C86.9,83.3,87.3,83.2,87.7,83z M82.8,70.6c1.8-0.5,2.8-2.4,2.2-4.1l0-0.1c-0.5-1.8-2.4-2.7-4.1-2.2
		c-1.8,0.5-2.8,2.4-2.2,4.2c0.4,1.4,1.8,2.4,3.2,2.4C82.2,70.7,82.5,70.7,82.8,70.6z M78.5,57.9c1.7-0.7,2.5-2.6,1.9-4.3l0-0.1
		c-0.7-1.7-2.6-2.5-4.3-1.8c-1.7,0.7-2.5,2.7-1.8,4.4c0.5,1.3,1.8,2.1,3.1,2.1C77.7,58.2,78.1,58.1,78.5,57.9z M72.7,97.7
		c1.8-0.4,3-2.1,2.6-3.9l0-0.1c-0.4-1.8-2.1-3-3.9-2.6c-1.8,0.4-3,2.1-2.6,3.9c0.3,1.6,1.7,2.7,3.3,2.7
		C72.3,97.8,72.5,97.8,72.7,97.7z M70.3,84.6c1.8-0.2,3.2-1.8,3-3.7l0-0.1c-0.2-1.8-1.8-3.2-3.6-2.9c-1.8,0.2-3.2,1.8-3,3.7
		c0.2,1.7,1.6,3,3.3,3C70.1,84.6,70.2,84.6,70.3,84.6z M68.6,71.3c1.8-0.4,3-2.1,2.6-3.9l0-0.1c-0.3-1.8-2.1-2.9-3.9-2.6
		c-1.8,0.4-3,2.1-2.6,3.9c0.3,1.6,1.7,2.7,3.3,2.7C68.1,71.4,68.4,71.4,68.6,71.3z M66.5,58.1c1.8-0.4,3-2.1,2.6-3.9l0-0.1
		c-0.4-1.8-2.1-2.9-3.9-2.6c-1.8,0.3-3,2.1-2.6,3.9c0.3,1.6,1.7,2.7,3.3,2.7C66.1,58.2,66.3,58.1,66.5,58.1z M18.4,93.7L18.4,93.7
		c0.7-1.8-0.1-3.7-1.8-4.3c-1.7-0.7-3.7,0.2-4.3,1.9c-0.7,1.7,0.1,3.6,1.9,4.3c0.4,0.2,0.8,0.2,1.2,0.2
		C16.7,95.8,17.9,95.1,18.4,93.7z M23,81.2L23,81.2c0.7-1.8-0.1-3.7-1.8-4.4c-1.7-0.7-3.7,0.2-4.3,1.9c-0.7,1.7,0.1,3.6,1.9,4.3
		c0.4,0.2,0.8,0.2,1.2,0.2C21.3,83.3,22.5,82.5,23,81.2z M27.7,68.3L27.7,68.3c0.6-1.8-0.5-3.7-2.2-4.2c-1.8-0.6-3.6,0.5-4.2,2.3
		c-0.5,1.8,0.5,3.6,2.2,4.1c0.3,0.1,0.6,0.1,1,0.1C26,70.7,27.3,69.8,27.7,68.3z M32.2,56.1L32.2,56.1c0.7-1.8-0.1-3.7-1.8-4.4
		c-1.7-0.7-3.6,0.2-4.3,1.9c-0.7,1.7,0.2,3.6,1.9,4.3c0.4,0.2,0.8,0.2,1.2,0.2C30.5,58.2,31.7,57.4,32.2,56.1z M37.6,95.1L37.6,95.1
		c0.4-1.9-0.8-3.6-2.6-3.9c-1.8-0.4-3.6,0.8-3.9,2.6c-0.4,1.8,0.8,3.6,2.6,3.9c0.2,0.1,0.4,0.1,0.7,0.1
		C35.9,97.8,37.3,96.7,37.6,95.1z M39.8,81.6L39.8,81.6c0.2-1.9-1.1-3.5-3-3.7c-1.8-0.2-3.5,1.2-3.6,3c-0.2,1.8,1.1,3.5,3,3.7
		c0.1,0,0.2,0,0.3,0C38.1,84.6,39.6,83.3,39.8,81.6z M41.8,68.7L41.8,68.7c0.4-1.9-0.8-3.6-2.6-3.9c-1.8-0.4-3.6,0.8-3.9,2.6
		c-0.4,1.8,0.8,3.6,2.6,3.9c0.2,0,0.4,0.1,0.7,0.1C40.1,71.4,41.4,70.3,41.8,68.7z M43.8,55.5L43.8,55.5c0.4-1.9-0.8-3.6-2.6-3.9
		c-1.8-0.4-3.6,0.8-3.9,2.6c-0.4,1.8,0.8,3.6,2.6,3.9c0.2,0,0.4,0.1,0.7,0.1C42.1,58.2,43.5,57.1,43.8,55.5z" fill="#20471f"/>

</svg>
