<?xml version="1.0" encoding="utf-8"?>
<!-- Generator: Adobe Illustrator 24.1.2, SVG Export Plug-In . SVG Version: 6.00 Build 0)  -->
<svg version="1.1" id="Capa_1" xmlns="http://www.w3.org/2000/svg" xmlns:xlink="http://www.w3.org/1999/xlink" x="0px" y="0px"
	 viewBox="0 0 106 106" style="enable-background:new 0 0 106 106;" xml:space="preserve">
<style type="text/css">
	.st0{fill:#20471f;}
</style>
<path class="st0" d="M31.9,63.3c7.9,0,14.3-6.4,14.3-14.3s-6.4-14.3-14.3-14.3S17.6,41.1,17.6,49
	S24,63.3,31.9,63.3z M86.3,44H57.7c-5.2,0-9.5,4.3-9.5,9.5v23.8H10.1V39.2c0-2.6-2.1-4.8-4.8-4.8s-4.8,2.1-4.8,4.8v62
	c0,2.6,2.1,4.8,4.8,4.8s4.8-2.1,4.8-4.8v-9.5h85.8v9.5c0,2.6,2.1,4.8,4.8,4.8s4.8-2.1,4.8-4.8V63C105.4,52.5,96.9,44,86.3,44z"/>
</svg>
