<?xml version="1.0" encoding="utf-8"?>
<!-- Generator: Adobe Illustrator 24.1.2, SVG Export Plug-In . SVG Version: 6.00 Build 0)  -->
<svg version="1.1" id="Layer_1" xmlns="http://www.w3.org/2000/svg" xmlns:xlink="http://www.w3.org/1999/xlink" x="0px" y="0px"
	 viewBox="0 0 512 512" enable-background="new 0 0 512 512" xml:space="preserve">
<style type="text/css">
	.st0{fill:#20471f;}
</style>
<g id="Food" class="st0">
	<path d="M139.1,3.8c-3.7-4.3-10.6-5.1-15.4-1.7c-2.7,1.9-4.2,4.7-4.2,7.8v466.7c0,9.1,3.9,17.9,10.9,24.5v1h1.1
		c7.3,6.3,17,9.9,27.1,9.9h9.6c10.1,0,19.8-3.5,27.1-9.9h1.1v-1c7-6.6,10.9-15.4,10.9-24.5V176.1c0-46.2-4.9-99.1-41.6-141.5
		L139.1,3.8z M185.5,351.7h-44.1v-26.9h44.1V351.7z M185.5,305h-44.1V38.6l7.1,8.2c32.5,37.6,37,84.4,37,129.3V305z"/>
	<path d="M379,10.8c-6,0-10.9,4.4-10.9,9.9v82.5c0,12.1-10.9,21.9-24.3,21.9h-24.9c-13.4,0-24.3-9.8-24.3-21.9V20.7
		c0-5.5-4.9-9.9-10.9-9.9c-6,0-10.9,4.4-10.9,9.9v82.5c0,23,20.7,41.7,46.2,41.7h1.5v73.7L308.2,234c-13.6,17.4-20.9,38.2-20.9,59.4
		v183.2c0,9.1,3.9,17.9,10.9,24.5v1h1.1c7.3,6.3,17,9.9,27.1,9.9h9.6c10.1,0,19.8-3.5,27.1-9.9h1.1v-1c7-6.6,10.9-15.4,10.9-24.5
		V293.5c0-21.3-7.3-42.1-20.9-59.4l-12.1-15.5v-73.7h1.5c25.5,0,46.1-18.7,46.2-41.7V20.7C389.9,15.2,385,10.8,379,10.8z
		 M309.2,351.7v-26.9h44.1v26.9L309.2,351.7z M353.3,305h-44.1v-11.6c0-17.2,5.9-34,16.9-48l5.2-6.6l5.2,6.6
		c11,14,16.9,30.8,16.9,48V305z"/>
	<path d="M346.4,87.7c6,0,10.9-4.4,10.9-9.9V20.7c0-5.5-4.9-9.9-10.9-9.9s-10.9,4.4-10.9,9.9v57.2C335.4,83.3,340.3,87.7,346.4,87.7
		z"/>
	<path d="M316.2,87.7c6,0,10.9-4.4,10.9-9.9V20.7c0-5.5-4.9-9.9-10.9-9.9c-6,0-10.9,4.4-10.9,9.9v57.2
		C305.2,83.3,310.1,87.7,316.2,87.7z"/>
</g>
</svg>
