<?xml version="1.0" encoding="utf-8"?>
<!-- Generator: Adobe Illustrator 24.1.2, SVG Export Plug-In . SVG Version: 6.00 Build 0)  -->
<svg version="1.1"
	 id="svg2" inkscape:version="0.91+devel r14033 custom" sodipodi:docname="gnome-tali.svg" xmlns:cc="http://creativecommons.org/ns#" xmlns:dc="http://purl.org/dc/elements/1.1/" xmlns:inkscape="http://www.inkscape.org/namespaces/inkscape" xmlns:rdf="http://www.w3.org/1999/02/22-rdf-syntax-ns#" xmlns:sodipodi="http://sodipodi.sourceforge.net/DTD/sodipodi-0.dtd" xmlns:svg="http://www.w3.org/2000/svg"
	 xmlns="http://www.w3.org/2000/svg" xmlns:xlink="http://www.w3.org/1999/xlink" x="0px" y="0px" viewBox="0 0 128 128"
	 enable-background="new 0 0 128 128" xml:space="preserve">
<sodipodi:namedview  bordercolor="#666666" borderopacity="1" gridtolerance="10" guidetolerance="10" id="namedview17" inkscape:current-layer="svg2" inkscape:cx="30.644068" inkscape:cy="64" inkscape:document-units="px" inkscape:pageopacity="0" inkscape:pageshadow="2" inkscape:window-height="1011" inkscape:window-maximized="0" inkscape:window-width="960" inkscape:window-x="0" inkscape:window-y="27" inkscape:zoom="1.84375" objecttolerance="10" pagecolor="#ffffff" showgrid="false">
	</sodipodi:namedview>
<desc  id="desc6">This icon is a part of Clarity icon theme for gtk</desc>
<path id="path3389" inkscape:connector-curvature="0" d="M46.2,11.6c-0.2,0-0.4,0-0.7,0.1c-0.9,0.2-28.1,5.8-28.5,6
	c-0.7,0.2-1.7,0.9-2,1.5C14.6,19.9,1.5,57.9,1.4,58.9c0,0.4,0.1,1.1,0.2,1.5c0.4,1.2,0.5,1.3,17,11.3c8.1,4.9,13.6,8.1,15.5,9.2
	c0.5,0.3,1.1,0.5,1.4,0.5c1.2,0,4.5-0.3,14.8-1.4c8.4-0.8,15.1-1.6,15.4-1.7c0.6-0.2,1.1-0.6,1.4-0.9c0.3-0.3,0.6-0.9,0.7-1.1
	c0.1-0.2,2.8-9.1,6-19.8c4.1-13.7,5.5-18.2,5.8-20c0.2-1.4-0.4-2.2-1.3-3c-1.2-1.1-29.9-21.1-30.4-21.4
	C47.4,11.8,46.8,11.5,46.2,11.6z" fill="#20471f"/>
<path id="path3387" inkscape:connector-curvature="0" fill="#FFFFFF" d="M38.1,16.8c0.2,0,0.4,0.1,0.7,0.2c1.4,0.6,1.3,3.1-0.1,5.5
	c-0.7,1.2-2.2,2.7-3.2,3.1c-1.4,0.6-2.5,0.4-2.9-0.6c-1-2.4,1.6-7,4.5-8C37.6,16.9,37.9,16.8,38.1,16.8z"/>
<path id="path3385" inkscape:connector-curvature="0" fill="#FFFFFF" d="M19.8,20.6c0.6,0,0.8,0.1,1.1,0.4c0.9,1,0.5,3.3-0.9,5.5
	c-1.2,1.8-2.7,2.9-4,3c-0.7,0-0.8,0-1.1-0.4c-0.5-0.6-0.6-1.3-0.4-2.4c0.4-2.2,2-4.6,4-5.7C18.9,20.7,19.3,20.6,19.8,20.6z"/>
<path id="path3383" inkscape:connector-curvature="0" fill="#FFFFFF" d="M57.3,39.7c0.1,0,0.2,0,0.3,0c0.2,0,0.5,0,0.9,0.2
	c1.4,0.4,2.7,2.1,3.1,4c0.1,0.4,0.2,1.3,0.1,2c-0.1,2.6-1.7,4.4-3.7,4.2c-1.6-0.2-2.8-1.3-3.6-3.3c-0.5-1.2-0.5-3.3,0-4.5
	c0.4-1,1.5-2.2,2.3-2.4C57,39.8,57.2,39.8,57.3,39.7z"/>
<path id="path3381" inkscape:connector-curvature="0" fill="#FFFFFF" d="M29.6,42.2c0.7,0,1.3,0.3,1.6,0.8c0.6,1,0.4,2.5-0.4,4.3
	c-1.5,3.3-4.8,5.3-6.2,3.8c-0.7-0.8-0.8-2.1-0.2-3.8c0.7-2.2,2.8-4.5,4.5-5C29.1,42.2,29.4,42.2,29.6,42.2z"/>
<path id="path3377" inkscape:connector-curvature="0" fill="#FFFFFF" d="M11.2,45.2c1.4-0.1,2.2,1.3,1.7,3.4c-1,4.2-5.5,7.5-6.7,4.9
	C6,53.1,6,52.7,6,51.9c0.2-2.6,2.4-5.7,4.6-6.5C10.8,45.3,11,45.2,11.2,45.2z"/>
<path id="path3369" inkscape:connector-curvature="0" fill="#FFFFFF" d="M29.4,60.5c1.9-0.1,5,0.8,6.9,2.1c2.2,1.4,1.9,2.7-0.6,2.7
	c-2.6,0-6.1-1.3-7.4-2.7c-0.9-1-0.8-1.6,0.4-1.9C28.9,60.5,29.1,60.5,29.4,60.5z"/>
<path id="path3359" inkscape:connector-curvature="0" fill="#FFFFFF" d="M31.3,75.3c0.3,0,0.6,0,1.2,0.1c3.1,0.4,6.5,2.2,6.5,3.4
	c0,0.7-0.6,0.9-2.3,0.8c-1.6-0.1-3.3-0.5-4.8-1.3c-1.1-0.5-2.3-1.5-2.4-1.9c-0.1-0.4,0.3-0.8,0.9-1C30.7,75.3,31,75.3,31.3,75.3z"/>
<path id="path3379" inkscape:connector-curvature="0" d="M92.4,45.7c-1.6,0.2-5.6,1.4-18.3,5.1c-14,4.1-17.6,5.2-18,5.5
	c-0.3,0.2-0.6,0.4-0.6,0.5c-0.2-0.1-0.2-0.1-0.5,0.4c-0.2,0.3-0.4,0.7-0.5,0.9c-0.1,0.2-1.7,9-3.7,19.4C48,92,47.1,96.7,47.2,97.2
	c0.1,0.3,0.3,0.9,0.5,1.3c0.3,0.6,1.6,1.8,15,13.3c8,6.9,14.9,12.7,15.2,12.9c0.6,0.4,1,0.6,1.8,0.6c0.9,0,1.6-0.3,18-6.4
	c10.9-4.1,17.3-6.5,17.7-6.8c0.4-0.2,0.8-0.8,1-1.1c0.3-0.5,1.5-4.7,5.3-19.6c2.7-10.4,4.8-18.4,4.9-19.6c0-0.6-0.1-1.2-0.4-1.6
	c-0.3-0.4-1.2-1.6-16.1-12.6c-8.5-6.2-15.8-11.5-16.2-11.7c-0.3-0.2-0.6-0.3-1-0.3C92.8,45.7,92.6,45.6,92.4,45.7z" fill="#20471f"/>
<path id="path3375" fill="#FFFFFF" d="M90.8,48.8c-0.3,0-0.6,0-0.8,0c-0.3,0-0.6,0.1-0.9,0.1c-1.5,0.4-2.2,1.2-2,2.1
	c0.2,1.1,2.2,2.5,4.3,3c1.3,0.3,3.4,0.4,4.4,0c0.9-0.3,1.8-1.1,1.8-1.6c0-1.3-1.8-2.8-4.3-3.4C92.7,48.9,91.7,48.8,90.8,48.8z
	 M68.1,55.3c-0.3,0-0.6,0.1-0.8,0.1c-1.2,0.3-2,0.9-2.3,1.6c-0.4,1.3,1.5,3.1,4.2,3.8c1.3,0.4,3.4,0.4,4.5,0
	c0.8-0.2,1.7-0.8,1.9-1.4c0.5-1.3-1.5-3.2-4.2-3.9C70.6,55.4,69.1,55.2,68.1,55.3z M99.6,55.9c-0.2,0-0.3,0-0.4,0
	c-2,0.4-2.8,1.4-2.3,2.7c0.3,0.9,2.2,2.1,3.9,2.6c3.4,1,6.6,0.2,6.6-1.6c0-1-1.5-2.4-3.2-3c-1.1-0.4-2.8-0.7-3.9-0.7
	C100,55.9,99.8,55.9,99.6,55.9z M78.3,62.6c-0.4,0-0.7,0-1.1,0.1c-0.4,0.1-1,0.3-1.4,0.5c-2.1,1.1-1.4,3.1,1.4,4.5
	c1.3,0.6,2.6,0.9,4.1,0.9c1.6,0,2.7-0.3,3.5-1c0.5-0.4,0.5-0.6,0.5-1.1c0-1.3-1.2-2.5-3.4-3.2C80.7,62.8,79.4,62.6,78.3,62.6z
	 M109.9,63.2c-0.3,0-0.6,0.1-0.8,0.1c-1.6,0.3-2.5,0.9-2.5,1.9c0,0.7,0.3,1.2,0.9,1.8c1.5,1.4,4.1,2.2,6.4,2.1
	c1.5-0.1,2.1-0.3,2.8-0.9c0.4-0.4,0.5-0.6,0.5-1c0-1.5-1.7-2.9-4.4-3.6C112.1,63.3,110.9,63.1,109.9,63.2z M57.9,66
	c-0.6,0-0.8,0.1-1.2,0.5c-0.6,0.6-1,1.2-1.2,2.3c-0.3,2.2,0.5,4.9,2.1,6.5c1.6,1.6,3.3,1.6,4.2-0.1c1.2-2.1,0.5-5.8-1.4-8
	C59.6,66.4,58.8,66,57.9,66z M88.2,70.3c-0.8,0-1.7,0.1-2,0.2c-1.3,0.4-2,1.1-2,2.1c0,0.7,0.3,1.2,1.1,1.9c1.5,1.3,3.3,1.9,5.9,1.9
	c1.5,0,1.8-0.1,2.4-0.3c1.9-0.9,2.1-2.3,0.5-3.8C92.7,71,90.6,70.3,88.2,70.3z M119.8,77.8c-0.3,0-0.6,0.1-0.9,0.2
	c-3.5,1.2-6.4,6.5-4.7,8.5c1.4,1.7,5.1-0.3,6.9-3.7C122.5,80,121.8,77.7,119.8,77.8z M77.1,81.4c-0.4,0-0.8,0-0.9,0.1
	c-1,0.6-1.6,1.6-1.7,3.2c-0.2,2.1,0.7,4.4,2.1,6c0.9,1,1.6,1.4,2.6,1.4c1,0,1.6-0.4,2.1-1.4C83,87.3,80.2,81.3,77.1,81.4z
	 M64.7,85.9c-0.3,0-0.6,0.1-0.8,0.2c-0.5,0.2-0.7,0.5-1,1.1c-0.8,1.5-0.6,4.3,0.5,6.3c1.2,2.3,3.3,3.5,4.6,2.5
	c1-0.7,1.4-1.7,1.4-3.7c-0.1-2.1-0.8-3.9-2.2-5.3C66.3,86.3,65.5,85.8,64.7,85.9z M53.1,90.3c-0.1,0-0.3,0.1-0.5,0.2
	c-1.1,0.3-1.7,1.6-1.7,3.4c0,1.3,0.2,2.4,0.9,3.8c1.2,2.4,3.2,3.5,4.6,2.6c1.5-1,1.6-4.5,0.2-7.1c-0.6-1.2-1.8-2.3-2.7-2.6
	C53.5,90.3,53.3,90.3,53.1,90.3z M105.9,94c-0.5,0-1,0.2-1.4,0.4c-2.1,1-3.9,3.3-4.5,5.5c-0.3,1-0.3,1.6,0,2.3
	c0.3,0.8,0.9,1.1,1.8,1c2-0.2,4.4-2.1,5.6-4.8c0.8-1.7,0.7-3.7-0.3-4.1C106.8,94,106.3,93.9,105.9,94z M71.2,106
	c-0.2,0-0.3,0.1-0.4,0.2c-0.4,0.2-1,0.8-1.3,1.4c-1.1,2.6,0.7,7.3,3.2,8.5c1.9,0.9,3.3,0,3.7-2.3c0.5-2.8-1.4-6.6-3.6-7.5
	C72.4,106.1,71.7,106,71.2,106z M91.7,110c-0.4,0-0.7,0.1-1.4,0.5c-2.7,1.4-5.1,5.1-4.6,7.2c0.3,1.3,1.3,1.7,2.8,1.2
	c3.2-1,6.2-5.5,5.2-7.9c-0.3-0.7-0.7-1-1.6-1C92,110,91.9,110,91.7,110z"/>
</svg>
