<?xml version="1.0" encoding="iso-8859-1"?>
<!-- Generator: Adobe Illustrator 16.0.0, SVG Export Plug-In . SVG Version: 6.00 Build 0)  -->
<!DOCTYPE svg PUBLIC "-//W3C//DTD SVG 1.1//EN" "http://www.w3.org/Graphics/SVG/1.1/DTD/svg11.dtd">
<svg version="1.1" id="Capa_1" xmlns="http://www.w3.org/2000/svg" xmlns:xlink="http://www.w3.org/1999/xlink" x="0px" y="0px"
	 width="612px" height="612px" viewBox="0 0 612 612" style="enable-background:new 0 0 612 612;" xml:space="preserve">
<g>
	<g id="Shape_384">
		<g>
			<path d="M306,530.125c-5.63,0-10.2,4.569-10.2,10.199v20.391c0,5.6,4.57,10.179,10.2,10.179c5.631,0,10.2-4.569,10.2-10.179
				v-20.391C316.2,534.704,311.631,530.125,306,530.125z M71.4,295.8H51c-5.63,0-10.2,4.57-10.2,10.18c0,5.641,4.57,10.2,10.2,10.2
				h20.4c5.63,0,10.2-4.56,10.2-10.2C81.6,300.38,77.03,295.8,71.4,295.8z M306,81.855c5.631,0,10.2-4.57,10.2-10.19V51.286
				c0-5.62-4.569-10.2-10.2-10.2c-5.63,0-10.2,4.57-10.2,10.2v20.37C295.8,77.285,300.37,81.855,306,81.855z M139.75,471.321
				l209.161-122.44l122.614-208.937L262.364,262.426L139.75,471.321z M413.824,197.574l-74.052,127.744l-53.856-53.764
				L413.824,197.574z M325.35,339.731l-127.898,73.96l74.042-127.745L325.35,339.731z M561,295.8h-20.4
				c-5.63,0-10.199,4.57-10.199,10.18c0,5.641,4.569,10.2,10.199,10.2H561c5.631,0,10.2-4.56,10.2-10.2
				C571.2,300.38,566.631,295.8,561,295.8z M306,0.347C136.996,0.347,0,137.19,0,305.979c0,168.83,136.996,305.674,306,305.674
				S612,474.81,612,305.979C612,137.19,474.993,0.347,306,0.347z M306,591.284c-160.548,0-285.6-124.92-285.6-285.295
				C20.4,145.636,145.452,20.716,306,20.716s285.6,124.919,285.6,285.263C591.6,466.364,466.548,591.284,306,591.284z" fill="white"/>
		</g>
	</g>
</g>
<g>
</g>
<g>
</g>
<g>
</g>
<g>
</g>
<g>
</g>
<g>
</g>
<g>
</g>
<g>
</g>
<g>
</g>
<g>
</g>
<g>
</g>
<g>
</g>
<g>
</g>
<g>
</g>
<g>
</g>
</svg>
