<?xml version="1.0" encoding="utf-8"?>
<!-- Generator: Adobe Illustrator 24.1.2, SVG Export Plug-In . SVG Version: 6.00 Build 0)  -->
<svg version="1.1" id="Capa_1" xmlns="http://www.w3.org/2000/svg" xmlns:xlink="http://www.w3.org/1999/xlink" x="0px" y="0px"
	 viewBox="0 0 106 106" style="enable-background:new 0 0 106 106;" xml:space="preserve">
<style type="text/css">
	.st5{fill:#20471f;}
</style>

<g class="st5">
	<circle cx="22" cy="16.7" r="8.6"/>
	<circle cx="58.7" cy="16.7" r="8.6"/>
	<circle cx="91.8" cy="66.9" r="6.1"/>
	<path d="M105.5,89l-4.3-10.3c-1.5-2.1-3.8-3.7-6.4-4.4c-0.7-0.1-1.7-0.2-2.6-0.2h-6.1L81,65.4c0.1-0.6,0.2-1.2,0.1-1.8l-5.8-28.9
		c-2.3-2.6-5.3-4.5-8.7-5.8c-2.3-0.9-4.9-1.3-7.6-1.3c-2.7,0-5.1,0.5-7.6,1.3c-3.3,1.2-6.2,3.2-8.7,5.8l-2,10.9l-2.2-10.9
		c-2.3-2.6-5.3-4.5-8.7-5.8c-2.3-0.9-4.9-1.3-7.6-1.3s-5.1,0.5-7.6,1.3c-3.3,1.2-6.2,3.2-8.7,5.8L0.5,63.6c-0.4,2,0.9,3.9,2.9,4.3
		C3.6,68,3.9,68,4.1,68c1.7,0,3.3-1.2,3.6-2.9l5-24.9v65.7H20V68h4.9v38h7.3V40.2l5,24.9c0.2,1.7,1.8,2.9,3.6,2.9l0,0
		c1.7,0,3.3-1.2,3.6-2.9l5-24.9v13.3l-4.7,23.1h4.7v29.3h7.3V76.6h4.9v29.4H69V76.7h4.7L69,53.5V40.2L74,65c0.2,1.5,1.5,2.6,2.8,2.8
		l9.3,15.8v22.3H91V91.2h2.4v14.7h4.9V84.6l2.7,6.4c0.4,1,1.3,1.5,2.2,1.5c0.4,0,0.6,0,1-0.2C105.5,91.7,106.1,90.3,105.5,89z"/>
</g>
</svg>
