<?xml version="1.0" encoding="utf-8"?>
<!-- Generator: Adobe Illustrator 24.1.2, SVG Export Plug-In . SVG Version: 6.00 Build 0)  -->
<svg version="1.1" id="Layer_1" xmlns="http://www.w3.org/2000/svg" xmlns:xlink="http://www.w3.org/1999/xlink" x="0px" y="0px"
	 viewBox="0 0 64 64" enable-background="new 0 0 64 64" xml:space="preserve">
<g transform="translate(0.000000,64.000000) scale(0.100000,-0.100000)">
	<path d="M462.1,548.6c-56.8-82.9-96.1-101.3-198.5-90.8c-113.7,11.8-154-7.9-170.5-88.1C79.7,309.2,57,267.1,36.3,267.1
		c-7.2,0-18.6-9.2-25.8-19.7c-11.4-17.1-8.3-19.7,14.5-19.7c37.2,0,67.2,22.4,77.5,56.6c9.3,27.6,9.3,27.6,16.5-9.2
		c5.2-25,2.1-51.3-9.3-81.6C88,134.2,88,44.7,108.6,34.2c22.7-10.5,31,5.3,16.5,27.6s-6.2,100,10.3,100c5.2,0,9.3-18.4,9.3-39.5
		c0-23.7,6.2-43.4,15.5-48.7c21.7-9.2,33.1,5.3,17.6,25c-21.7,27.6-13.4,68.4,31,144.7l43.4,75l36.2-28.9
		c19.6-14.5,54.8-31.6,78.6-35.5c39.3-6.6,41.3-9.2,49.6-65.8c19.6-143.4,21.7-151.3,46.5-155.2c25.8-5.3,31,19.7,7.2,31.6
		c-11.4,6.6-15.5,30.3-15.5,96c0,73.7,4.1,96,25.8,132.9c14.5,25,25.8,52.6,25.8,61.8s4.1,27.6,10.3,40.8
		c5.2,11.8,14.5,38.2,20.7,57.9c8.3,32.9,12.4,35.5,37.2,23.7c26.9-13.2,45.5-7.9,45.5,11.8c0,6.6-10.3,15.8-22.7,21
		c-22.7,9.2-22.7,9.2-3.1,15.8c49.6,15.8,56.8,56.6,10.3,56.6c-13.4,0-27.9,6.6-31,13.2c-3.1,7.9-21.7,13.2-39.3,13.2
		C508.7,607.8,493.2,596,462.1,548.6z" fill="#20471f"/>
</g>
</svg>
