<?xml version="1.0" encoding="utf-8"?>
<!-- Generator: Adobe Illustrator 24.1.2, SVG Export Plug-In . SVG Version: 6.00 Build 0)  -->
<svg version="1.1" id="Facebook" xmlns="http://www.w3.org/2000/svg" xmlns:xlink="http://www.w3.org/1999/xlink" x="0px" y="0px"
	 viewBox="0 0 144.1 144" style="enable-background:new 0 0 144.1 144;" xml:space="preserve">

<path d="M72,11.2c-33.5,0-60.8,27.3-60.8,60.8c0,33.5,27.3,60.8,60.8,60.8c33.5,0,60.8-27.3,60.8-60.8
	C132.9,38.5,105.6,11.2,72,11.2z M72,126.8c-30.2,0-54.8-24.6-54.8-54.8c0-30.2,24.6-54.8,54.8-54.8s54.8,24.6,54.8,54.8
	C126.9,102.2,102.3,126.8,72,126.8z" fill="white"/>
<path d="M104.7,42c-1.4-1.2-3.4-1.6-5.2-0.9L40.8,64.2c-2.6,1-3.9,4-2.9,6.6c0.6,1.6,2,2.8,3.7,3.1l14.9,3v18.6
	c0,2.8,2.3,5.1,5.1,5.1c1.4,0,2.7-0.5,3.6-1.5l8.3-8.3l12.5,11c0.9,0.8,2.1,1.3,3.3,1.3c0.5,0,1.1-0.1,1.6-0.3c1.7-0.5,3-2,3.4-3.7
	l12-52.2C106.8,45.2,106.2,43.3,104.7,42z M58.6,72.1L42.7,69l44.4-17.5L58.6,72.1z M61.7,95.6V80.5l8,7.1L61.7,95.6z M89.4,98.1
	L63.2,75L101,47.8L89.4,98.1z"  fill="white"/>
</svg>
