<?xml version="1.0" encoding="utf-8"?>
<!-- Generator: Adobe Illustrator 24.1.2, SVG Export Plug-In . SVG Version: 6.00 Build 0)  -->
<svg version="1.1" id="Facebook" xmlns="http://www.w3.org/2000/svg" xmlns:xlink="http://www.w3.org/1999/xlink" x="0px" y="0px"
	 viewBox="0 0 144.1 144" style="enable-background:new 0 0 144.1 144;" xml:space="preserve">
<style type="text/css">
	.st1{display:inline;}
</style>
<path d="M72,11.2c-33.5,0-60.8,27.3-60.8,60.8c0,33.5,27.3,60.8,60.8,60.8c33.5,0,60.8-27.3,60.8-60.8
	C132.9,38.5,105.6,11.2,72,11.2z M72,126.8c-30.2,0-54.8-24.6-54.8-54.8c0-30.2,24.6-54.8,54.8-54.8s54.8,24.6,54.8,54.8
	C126.9,102.2,102.3,126.8,72,126.8z" fill="white"/>
<path d="M70.2,36.1c-5.8,0.1-18.2,1-25.1,7.4c-5.2,5.1-7,12.7-7.2,22c-0.2,9.3-0.4,26.8,16.5,31.6v7.3c0,0-0.1,2.9,1.8,3.5
	c2.4,0.7,3.7-1.5,6-3.9l4.2-4.7c11.5,1,20.4-1.3,21.4-1.6c2.3-0.7,15.5-2.4,17.7-19.9c2.2-18.1-1.1-29.5-7-34.6h0
	c-1.8-1.6-9-6.9-25.1-7C73.4,36.1,72.2,36,70.2,36.1L70.2,36.1z M70.4,41.1c1.6,0,2.6,0.1,2.6,0.1c13.6,0,20.1,4.1,21.6,5.5
	c5,4.3,7.6,14.5,5.7,29.6C98.6,91,87.9,91.9,85.9,92.5c-0.8,0.3-8.6,2.2-18.4,1.6c0,0-7.3,8.8-9.6,11.1c-0.4,0.4-0.8,0.5-1.1,0.5
	c-0.4-0.1-0.5-0.6-0.5-1.2l0.1-12c-14.3-4-13.5-18.9-13.3-26.7c0.2-7.8,1.6-14.2,6-18.5C55,41.9,65.5,41.2,70.4,41.1L70.4,41.1z
	 M71.5,48.9c-0.5,0-0.9,0.4-0.9,0.9c0,0.5,0.4,0.9,0.9,0.9c4.5-0.1,8.8,1.6,12.1,4.8c3.3,3.2,4.9,7.4,4.9,13c0,0.5,0.4,0.9,0.9,0.9
	v0c0.5,0,0.9-0.4,0.9-0.9c0.2-5.3-1.7-10.5-5.4-14.3C81.3,50.7,76.8,48.9,71.5,48.9L71.5,48.9z M59.7,51c-0.6-0.1-1.3,0-1.8,0.4h0
	c-1.2,0.7-2.4,1.6-3.4,2.8c-0.8,0.9-1.3,1.9-1.4,2.8c-0.1,0.6,0,1.1,0.1,1.6l0.1,0c0.9,2.7,2.1,5.3,3.6,7.8c1.9,3.5,4.2,6.6,7,9.5
	l0.1,0.1l0.1,0.1l0.1,0.1l0.1,0.1c2.9,2.7,6.1,5.1,9.5,7c4,2.2,6.4,3.2,7.8,3.6v0c0.4,0.1,0.8,0.2,1.2,0.2c1.2-0.1,2.4-0.6,3.3-1.4
	c1.2-1.1,2.1-2.2,2.8-3.4v0c0.7-1.3,0.5-2.5-0.5-3.4c-2-1.7-4.2-3.3-6.4-4.6c-1.5-0.8-3.1-0.3-3.7,0.5l-1.3,1.7
	c-0.7,0.8-1.9,0.7-1.9,0.7l0,0c-9.4-2.4-11.8-11.9-11.8-11.9s-0.1-1.3,0.7-1.9l1.7-1.4c0.8-0.7,1.4-2.2,0.5-3.7
	c-1.3-2.3-2.9-4.4-4.6-6.4C60.8,51.4,60.3,51.1,59.7,51L59.7,51z M73.1,53.7c-1.2,0-1.2,1.8,0,1.8c3,0,5.9,1.3,7.9,3.4
	c1.9,2.1,2.9,4.9,2.7,7.7c0,0.5,0.4,0.9,0.9,0.9l0,0c0.5,0,0.9-0.4,0.9-0.9c0.1-3.6-1-6.6-3.2-9c-2.2-2.4-5.2-3.7-9.1-4
	C73.2,53.7,73.1,53.7,73.1,53.7z M74.6,58.5c-1.2,0-1.3,1.8-0.1,1.8c3,0.2,4.4,1.6,4.6,4.7c0,0.5,0.4,0.9,0.9,0.9h0
	c0.5,0,0.9-0.5,0.9-1C80.7,61,78.5,58.7,74.6,58.5C74.6,58.5,74.6,58.5,74.6,58.5L74.6,58.5z" fill="white"/>
</svg>
