<?xml version="1.0" encoding="utf-8"?>
<!-- Generator: Adobe Illustrator 24.1.2, SVG Export Plug-In . SVG Version: 6.00 Build 0)  -->
<svg version="1.1" id="Facebook" xmlns="http://www.w3.org/2000/svg" xmlns:xlink="http://www.w3.org/1999/xlink" x="0px" y="0px"
	 viewBox="0 0 144.1 144" style="enable-background:new 0 0 144.1 144;" xml:space="preserve">
<path d="M72,11.2c-33.5,0-60.8,27.3-60.8,60.8c0,33.5,27.3,60.8,60.8,60.8c33.5,0,60.8-27.3,60.8-60.8
	C132.9,38.5,105.6,11.2,72,11.2z M72,126.8c-30.2,0-54.8-24.6-54.8-54.8c0-30.2,24.6-54.8,54.8-54.8s54.8,24.6,54.8,54.8
	C126.9,102.2,102.3,126.8,72,126.8z"/>
<path d="M108,90.3c-0.1-0.2-0.2-0.4-0.2-0.5c-1.3-2.5-3.7-5.5-7.3-9l-0.1-0.1l0,0l0,0h-0.1c-1.7-1.7-2.8-2.9-3.2-3.5
	c-0.8-1.1-1-2.3-0.6-3.5c0.3-0.9,1.5-2.7,3.6-5.6c1.1-1.5,1.9-2.7,2.6-3.6c4.6-6.6,6.6-10.7,5.9-12.6l-0.2-0.4
	c-0.2-0.3-0.6-0.5-1.2-0.7c-0.7-0.2-1.5-0.2-2.5-0.1H93.4c0,0-0.4,0.9-0.8,1c-0.3,0.1-0.5,0.1-0.5,0.1L92,51.8l-0.2,0.1
	c-0.1,0.1-0.3,0.2-0.4,0.4c-0.2,0.2-0.3,0.4-0.4,0.7c-1.2,3.3-2.6,6.4-4.1,9.2c-0.9,1.7-1.8,3.2-2.6,4.4c-0.8,1.2-1.4,2.2-2,2.8
	c-0.5,0.6-1,1.1-1.4,1.4c-0.4,0.4-0.8,0.5-1,0.5c-0.2-0.1-0.4-0.1-0.6-0.2c-0.4-0.2-0.6-0.6-0.9-1c-0.2-0.4-0.4-1-0.4-1.6
	c-0.1-0.6-0.1-1.2-0.1-1.7c0-0.5,0-1.1,0-2c0-0.8,0-1.4,0-1.7c0-1,0-2.2,0.1-3.4c0-1.2,0.1-2.2,0.1-2.9c0-0.7,0-1.5,0-2.3
	c0-0.8,0-1.4-0.1-1.9c-0.1-0.5-0.2-0.9-0.4-1.3c-0.2-0.4-0.4-0.8-0.8-1c-0.3-0.2-0.8-0.4-1.3-0.6c-1.3-0.3-3.1-0.5-5.1-0.5
	c-4.7-0.1-7.8,0.3-9.1,1c-0.5,0.3-1,0.7-1.4,1.2c-0.5,0.6-0.5,0.9-0.2,1c1.5,0.2,2.6,0.8,3.2,1.8l0.2,0.5c0.2,0.4,0.4,1,0.5,1.9
	c0.2,0.9,0.3,1.9,0.3,3c0.1,2,0.1,3.7,0,5.1c-0.1,1.4-0.2,2.5-0.4,3.3c-0.1,0.8-0.3,1.4-0.5,1.9c-0.2,0.5-0.4,0.8-0.5,0.9
	c-0.1,0.1-0.1,0.2-0.2,0.2c-0.3,0.1-0.7,0.2-1,0.2c-0.4,0-0.8-0.2-1.3-0.6c-0.5-0.4-1-0.9-1.6-1.6c-0.5-0.7-1.2-1.6-1.8-2.8
	c-0.7-1.2-1.4-2.6-2.1-4.3L53.9,61c-0.4-0.8-0.9-1.9-1.6-3.3c-0.7-1.5-1.2-2.9-1.8-4.3c-0.2-0.6-0.5-1-0.9-1.3L49.5,52
	c-0.1-0.1-0.3-0.2-0.6-0.3c-0.3-0.1-0.9-0.1-0.9-0.1l-10.2,0.1c-1,0-1.8,0.3-2.1,0.8l-0.1,0.2c-0.1,0.1-0.1,0.3-0.1,0.6
	c0,0.3,0.1,0.7,0.2,1.1c1.5,3.8,3.1,7.4,4.9,11c1.8,3.5,3.3,6.4,4.6,8.5c1.3,2.1,2.6,4.2,4,6.1c1.3,1.9,2.2,3.1,2.7,3.7
	c0.4,0.5,0.8,0.9,1,1.2l0.9,1c0.6,0.6,1.5,1.4,2.6,2.3c1.2,0.9,2.4,1.8,3.9,2.7c1.4,0.9,3,1.6,4.9,2.1c1.9,0.6,3.7,0.8,5.5,0.7h4.7
	c0,0,1.6,0.2,2-0.3l0.2-0.2c0.1-0.2,0.2-0.4,0.3-0.8c0.1-0.3,0.1-0.7,0.1-1.1c0-1.2,0.1-2.2,0.2-3.2c0.2-0.9,0.4-1.7,0.6-2.1
	c0.2-0.5,0.5-0.9,0.8-1.2c0.3-0.3,0.5-0.5,0.6-0.6c0.1-0.1,0.2-0.1,0.3-0.1c0.6-0.2,1.3,0,2.2,0.6c0.8,0.6,1.6,1.4,2.3,2.4
	c0.7,0.9,1.6,2,2.6,3.2c1,1.2,1.9,2.1,2.7,2.6l0.8,0.5c0.5,0.3,1.2,0.6,2,0.9c0.8,0.3,2.1,0.4,2.1,0.4l9.8-0.2c1,0,1.7-0.2,2.2-0.5
	c0.5-0.3,0.8-0.7,0.9-1.1c0.1-0.4,0.1-0.9,0-1.4C108.1,90.9,108.1,90.5,108,90.3z" fill="white"/>
<path d="M72.041,11.166c-33.543,0-60.833,27.29-60.833,60.834c0,33.545,27.29,60.834,60.833,60.834  c33.544,0,60.835-27.289,60.835-60.834C132.875,38.456,105.584,11.166,72.041,11.166z M72.041,126.834  c-30.235,0-54.833-24.598-54.833-54.834c0-30.235,24.598-54.834,54.833-54.834c30.235,0,54.835,24.599,54.835,54.834  C126.875,102.236,102.276,126.834,72.041,126.834z" fill="white"/>
</svg>
