<?xml version="1.0" encoding="utf-8"?>
<!-- Generator: Adobe Illustrator 24.1.2, SVG Export Plug-In . SVG Version: 6.00 Build 0)  -->
<svg version="1.1" id="Facebook" xmlns="http://www.w3.org/2000/svg" xmlns:xlink="http://www.w3.org/1999/xlink" x="0px" y="0px"
	 viewBox="0 0 144.1 144" style="enable-background:new 0 0 144.1 144;" xml:space="preserve">

<path d="M72,11.2c-33.5,0-60.8,27.3-60.8,60.8c0,33.5,27.3,60.8,60.8,60.8c33.5,0,60.8-27.3,60.8-60.8
	C132.9,38.5,105.6,11.2,72,11.2z M72,126.8c-30.2,0-54.8-24.6-54.8-54.8c0-30.2,24.6-54.8,54.8-54.8s54.8,24.6,54.8,54.8
	C126.9,102.2,102.3,126.8,72,126.8z" fill="white"/>
<path d="M72,37.3c-19.1,0-34.7,15.5-34.7,34.7c0,5.8,1.5,11.6,4.3,16.7l-2.8,10c-0.8,2.8,0.8,5.8,3.7,6.6c1,0.3,2,0.3,2.9,0l10-2.8
	c16.8,9.2,37.9,3.1,47.1-13.7s3.1-37.9-13.7-47.1C83.6,38.8,77.9,37.3,72,37.3z M72,101.3c-5.3,0-10.4-1.4-15-4.1
	c-0.6-0.4-1.4-0.5-2.1-0.3l-11.1,3.2l3.2-11.1c0.2-0.7,0.1-1.5-0.3-2.1C38.5,73,43.1,55,57.1,46.8S89,43.1,97.3,57
	s3.7,31.9-10.3,40.2C82.5,99.9,77.3,101.3,72,101.3z M89.5,77l-6.8-3.9c-1.7-1-3.7-0.9-5.4,0.1l-3.9,2.4c-2-1.2-3.7-2.9-4.9-4.9
	l2.4-4c1-1.7,1-3.7,0.1-5.4L67,54.5C66.1,53,64.5,52,62.7,52c-6.6,0-12,5.3-12,12c0,16.2,13.1,29.3,29.3,29.4c0,0,0,0,0,0
	c0,0,0,0,0,0c6.6,0,12-5.4,12-12C92,79.5,91.1,77.9,89.5,77L89.5,77z M80.1,88c-13.3,0-24-10.7-24-24c0,0,0,0,0-0.1
	c0-3.6,2.9-6.5,6.5-6.6l3.8,6.6l-3.1,5.2c-0.4,0.7-0.5,1.7-0.1,2.5c1.9,4.2,5.2,7.5,9.4,9.4c0.8,0.4,1.7,0.3,2.5-0.1l5.2-3.1
	l6.6,3.8C86.6,85.1,83.7,88,80.1,88z" fill="white"/>
</svg>
